<svg width="229" height="390" viewBox="0 0 229 390" fill="none" xmlns="http://www.w3.org/2000/svg">
<path d="M71.1562 81.5H189.844C195.094 81.6875 199.406 83.6562 202.781 87.4062C206.344 91.1563 208.125 95.6563 208.125 100.906C207.188 112.156 201.094 118.25 189.844 119.188H80.7188C73.5938 119.562 67.6875 122.281 63 127.344C58.3125 132.406 54.8438 138.219 52.5938 144.781C50.5312 151.156 49.5 157.719 49.5 164.469C49.5 171.219 50.5312 177.875 52.5938 184.438C54.8438 190.812 58.3125 196.531 63 201.594C67.6875 206.656 73.5938 209.375 80.7188 209.75H166.219C169.594 209.562 171.375 207.688 171.562 204.125V187.812C171.375 184.062 169.594 182.188 166.219 182.188H94.2188C88.9688 182.188 84.4688 180.406 80.7188 176.844C77.1562 173.094 75.375 168.594 75.375 163.344C75.375 158.094 77.1562 153.594 80.7188 149.844C84.4688 146.281 88.9688 144.5 94.2188 144.5H190.406C195.656 144.5 200.156 146.281 203.906 149.844C207.281 153.406 209.062 157.719 209.25 162.781V163.344V229.156C209.062 234.219 207.281 238.438 203.906 241.812C200.344 245.375 196.031 247.25 190.969 247.438H71.1562C58.0312 246.688 47.1562 241.719 38.5312 232.531C30.0938 223.156 24 212.562 20.25 200.75C16.6875 188.938 14.9062 176.844 14.9062 164.469C14.9062 152.094 16.7812 140 20.5312 128.188C24.2812 116.375 30.375 105.875 38.8125 96.6875C47.25 87.3125 58.0312 82.25 71.1562 81.5Z" fill="white"/>
<path d="M120.133 355.79C110.45 355.79 100.861 354.673 91.3651 352.439C82.0552 350.204 73.1177 346.946 64.5526 342.663C55.9874 338.194 48.4464 332.329 41.9295 325.068C35.4126 317.806 31.8748 309.148 31.3162 299.093V287.362V283.173C31.3162 277.959 33.1782 273.677 36.9022 270.325C40.8123 266.788 45.3742 265.019 50.5877 265.019C61.7596 265.95 67.811 272.001 68.742 283.173V290.435C69.1144 296.207 71.2557 301.048 75.1658 304.958C79.2622 308.682 83.7309 311.661 88.5721 313.896C93.5994 316.13 98.7199 317.806 103.933 318.923C109.333 320.04 114.733 320.599 120.133 320.599C125.532 320.599 130.839 320.04 136.053 318.923C141.452 317.806 146.573 316.13 151.414 313.896C156.441 311.661 160.91 308.682 164.82 304.958C168.916 301.048 171.151 296.207 171.523 290.435V198.267C171.523 193.053 173.385 188.771 177.109 185.419C181.019 181.881 185.581 180.112 190.795 180.112C201.967 181.043 208.111 187.095 209.228 198.267V287.362V299.093C208.67 309.148 205.039 317.806 198.336 325.068C191.819 332.329 184.278 338.194 175.713 342.663C167.148 346.946 158.117 350.204 148.621 352.439C139.311 354.673 129.815 355.79 120.133 355.79Z" fill="white"/>
</svg>
